<svg xmlns="http://www.w3.org/2000/svg" xmlns:xlink="http://www.w3.org/1999/xlink" width="48px" zoomAndPan="magnify" viewBox="0 0 375 374.999991" height="48px" preserveAspectRatio="xMidYMid meet" version="1.0"><defs><clipPath id="ee4ed374a7"><path d="M 130 107 L 360.792969 107 L 360.792969 372.195312 L 130 372.195312 Z M 130 107 " clip-rule="nonzero"/></clipPath><clipPath id="2e701572c2"><path d="M 14.292969 2.445312 L 243 2.445312 L 243 217 L 14.292969 217 Z M 14.292969 2.445312 " clip-rule="nonzero"/></clipPath></defs><g clip-path="url(#ee4ed374a7)"><path fill="#000000" d="M 248.230469 277.828125 C 281.699219 268.777344 308.824219 254.535156 329.574219 235.144531 C 350.300781 215.753906 360.683594 190.660156 360.683594 159.839844 L 360.683594 107.378906 L 243.726562 107.597656 L 243.726562 164.195312 C 243.726562 180.507812 236.105469 193.550781 220.863281 203.34375 C 205.625 213.121094 183.765625 218.015625 155.265625 218.015625 L 130.90625 218.015625 L 130.90625 293.988281 L 201.816406 372.574219 L 336.757812 372.574219 L 248.230469 277.828125 " fill-opacity="1" fill-rule="nonzero"/></g><g clip-path="url(#2e701572c2)"><path fill="#000000" d="M 242.621094 106.660156 L 242.621094 2.457031 L 14.34375 2.457031 L 14.34375 216.339844 L 129.796875 216.339844 L 129.796875 106.660156 L 242.621094 106.660156 " fill-opacity="1" fill-rule="nonzero"/></g></svg>
